<mxfile host="app.diagrams.net" modified="2022-06-27T08:04:52.621Z" agent="5.0 (Macintosh; Intel Mac OS X 10_15_7) AppleWebKit/537.36 (KHTML, like Gecko) Chrome/102.0.0.0 Safari/537.36" etag="AmhTF5KoPmpu2v8zaXb8" version="20.0.2" type="github">
  <diagram id="6ltaDlcJsRXYCezpUjlT" name="Page-1">
    <mxGraphModel dx="1186" dy="595" grid="1" gridSize="10" guides="1" tooltips="1" connect="1" arrows="1" fold="1" page="1" pageScale="1" pageWidth="850" pageHeight="1100" math="0" shadow="0">
      <root>
        <mxCell id="0" />
        <mxCell id="1" parent="0" />
        <mxCell id="J3UrRn2UCZKZfgnxGZ6t-2" value="" style="rounded=0;whiteSpace=wrap;html=1;" vertex="1" parent="1">
          <mxGeometry x="160" y="250" width="420" height="300" as="geometry" />
        </mxCell>
        <mxCell id="J3UrRn2UCZKZfgnxGZ6t-3" value="PageRemoveList&lt;br&gt;" style="text;html=1;strokeColor=none;fillColor=none;align=center;verticalAlign=middle;whiteSpace=wrap;rounded=0;" vertex="1" parent="1">
          <mxGeometry x="300" y="260" width="60" height="30" as="geometry" />
        </mxCell>
        <mxCell id="J3UrRn2UCZKZfgnxGZ6t-4" value="" style="rounded=0;whiteSpace=wrap;html=1;" vertex="1" parent="1">
          <mxGeometry x="270" y="320" width="180" height="50" as="geometry" />
        </mxCell>
        <mxCell id="J3UrRn2UCZKZfgnxGZ6t-5" value="RemoveListForm" style="text;html=1;strokeColor=none;fillColor=none;align=center;verticalAlign=middle;whiteSpace=wrap;rounded=0;" vertex="1" parent="1">
          <mxGeometry x="290" y="330" width="60" height="30" as="geometry" />
        </mxCell>
        <mxCell id="J3UrRn2UCZKZfgnxGZ6t-6" value="" style="rounded=0;whiteSpace=wrap;html=1;" vertex="1" parent="1">
          <mxGeometry x="270" y="390" width="180" height="60" as="geometry" />
        </mxCell>
        <mxCell id="J3UrRn2UCZKZfgnxGZ6t-7" value="RemoveListTable" style="text;html=1;strokeColor=none;fillColor=none;align=center;verticalAlign=middle;whiteSpace=wrap;rounded=0;" vertex="1" parent="1">
          <mxGeometry x="300" y="400" width="60" height="30" as="geometry" />
        </mxCell>
        <mxCell id="J3UrRn2UCZKZfgnxGZ6t-8" value="" style="rounded=0;whiteSpace=wrap;html=1;" vertex="1" parent="1">
          <mxGeometry x="270" y="470" width="180" height="60" as="geometry" />
        </mxCell>
        <mxCell id="J3UrRn2UCZKZfgnxGZ6t-9" value="ConfigListTable" style="text;html=1;strokeColor=none;fillColor=none;align=center;verticalAlign=middle;whiteSpace=wrap;rounded=0;" vertex="1" parent="1">
          <mxGeometry x="290" y="480" width="60" height="30" as="geometry" />
        </mxCell>
      </root>
    </mxGraphModel>
  </diagram>
</mxfile>
